<?xml version="1.0" encoding="iso-8859-1"?>
<!-- Generator: Adobe Illustrator 19.0.0, SVG Export Plug-In . SVG Version: 6.00 Build 0)  -->
<svg version="1.1" id="Capa_1" xmlns="http://www.w3.org/2000/svg" xmlns:xlink="http://www.w3.org/1999/xlink" x="0px" y="0px"
	 viewBox="0 0 384 384" style="enable-background:new 0 0 384 384;" xml:space="preserve">
<g>
	<g>
		<path d="M333.5,4.739h-283c-27.6,0-50.5,22-50.5,49.5v183.2c0,27.6,22.9,50.3,50.5,50.3h46.9l19.5,83.9c1.4,5.4,6.9,8.7,12.3,7.3
			c1.8-0.5,3.5-1.5,4.8-2.8l80.2-88.4h119.3c27.6,0,50.5-22.7,50.5-50.3v-183.2C384,26.739,361.1,4.739,333.5,4.739z M364,237.439
			c0,16.5-13.9,30.3-30.5,30.3H209.7c-2.8-0.1-5.5,1.1-7.4,3.1l-70.3,77.6l-17-73c-1.1-4.5-5.1-7.7-9.7-7.6H50.5
			c-16.6-0.1-30.5-13.9-30.5-30.4v-183.2c0-16.5,13.9-29.5,30.5-29.5h283c16.5,0,30.5,13,30.5,29.5V237.439z"/>
	</g>
</g>
<g>
	<g>
		<path d="M287.2,45.839l-51.1-3.7c-5.5-0.4-10.3,3.7-10.7,9.2s3.7,10.3,9.2,10.7h0.1l25.1,1.8l-55.4,43.1l-48.3-38.1
			c-3.9-3.1-9.5-2.8-13.1,0.6l-52.3,50.2c-4,3.8-4.2,10.1-0.3,14.1c3.8,4,10.1,4.2,14.1,0.3c0,0,0,0,0.1-0.1l46.1-44.2l47.6,37.5
			c3.6,2.8,8.7,2.9,12.3,0l64.3-50l-1.9,24.9c-0.4,5.5,3.7,10.3,9.2,10.7c0.3,0,0.5,0,0.8,0c5.2,0,9.6-4,10-9.2l3.7-47.5
			C296.9,51.039,292.7,46.239,287.2,45.839z"/>
	</g>
</g>
<g>
	<g>
		<path d="M208,150.739h-32c-5.5,0-10,4.5-10,10v76c0,5.5,4.5,10,10,10h32c5.5,0,10-4.5,10-10v-76
			C218,155.239,213.5,150.739,208,150.739z M198,227.739h-12v-57h12V227.739z"/>
	</g>
</g>
<g>
	<g>
		<path d="M143,172.739h-32c-5.5,0-10,4.5-10,10v55c0,5.5,4.5,10,10,10h32c5.5,0,10-4.5,10-10v-55
			C153,177.239,148.5,172.739,143,172.739z M133,227.739h-12v-35h12V227.739z"/>
	</g>
</g>
<g>
	<g>
		<path d="M273,134.739h-32c-5.5,0-10,4.5-10,10v92c0,5.5,4.5,10,10,10h32c5.5,0,10-4.5,10-10v-92
			C283,139.239,278.5,134.739,273,134.739z M263,227.739h-12v-73h12V227.739z"/>
	</g>
</g>
<g>
</g>
<g>
</g>
<g>
</g>
<g>
</g>
<g>
</g>
<g>
</g>
<g>
</g>
<g>
</g>
<g>
</g>
<g>
</g>
<g>
</g>
<g>
</g>
<g>
</g>
<g>
</g>
<g>
</g>
</svg>
