<?xml version="1.0" encoding="iso-8859-1"?>
<!-- Generator: Adobe Illustrator 19.0.0, SVG Export Plug-In . SVG Version: 6.00 Build 0)  -->
<svg version="1.1" id="Capa_1" xmlns="http://www.w3.org/2000/svg" xmlns:xlink="http://www.w3.org/1999/xlink" x="0px" y="0px"
	 viewBox="0 0 456 456" style="enable-background:new 0 0 456 456;" xml:space="preserve">
<g>
	<g>
		<path d="M446.5,6H94.3C88.7,6,84.2,10.5,84,16.1V261H9.5C4,261,0,265.5,0,271v126.5C0,426.4,23,450,51.9,450h341.6
			c34.7,0,62.5-28.4,62.5-63.1V16.1C456,10.6,452,6,446.5,6z M84,397.5c0,17.7-14.3,32-32,32s-32-14.3-32-32V281h64V397.5z
			 M436,386.9c0,23.7-18.8,43.1-42.5,43.1H93c7.2-9.3,11.1-20.7,11-32.5V26h332V386.9z"/>
	</g>
</g>
<g>
	<g>
		<path d="M362.1,347h-182c-5.5,0-10,4.5-10,10s4.5,10,10,10h182c5.5,0,10-4.5,10-10S367.6,347,362.1,347z"/>
	</g>
</g>
<g>
	<g>
		<path d="M373.2,91.7c0,0,0,0-0.1,0l-55.4-4c-5.5-0.4-10.3,3.8-10.7,9.3c-0.4,5.5,3.8,10.3,9.3,10.7l29.4,2.1l-62.3,48.4
			l-52.9-41.7c-3.9-3.1-9.5-2.8-13.1,0.6l-56.7,54.4c-4,3.8-4.1,10.2-0.3,14.1c1.9,2.1,4.5,3.2,7.2,3.2c2.6,0,5.1-1,6.9-2.8
			l50.4-48.4l52.2,41.1c3.6,2.8,8.7,2.9,12.3,0l71.2-55.3l-2.2,28.9c-0.4,5.5,3.7,10.3,9.2,10.7c0.3,0,0.5,0,0.8,0
			c5.2,0,9.6-4,10-9.2l4-51.4C382.8,96.9,378.7,92.1,373.2,91.7z"/>
	</g>
</g>
<g>
	<g>
		<path d="M288,206h-35c-5.5,0-10,4.5-10,10v83c0,5.5,4.5,10,10,10h35c5.5,0,10-4.5,10-10v-83C298,210.5,293.5,206,288,206z
			 M277,288h-14v-62h14V288z"/>
	</g>
</g>
<g>
	<g>
		<path d="M217,229h-35c-5.5,0-10,4.5-10,10v59c0,5.5,4.5,10,10,10h35c5.5,0,10-4.5,10-10v-59C227,233.5,222.5,229,217,229z
			 M207,288h-15v-39h15V288z"/>
	</g>
</g>
<g>
	<g>
		<path d="M358,188h-35c-5.5,0-10,4.5-10,10v100c0,5.5,4.5,10,10,10h35c5.5,0,10-4.5,10-10V198C368,192.5,363.5,188,358,188z
			 M348,288h-15v-80h15V288z"/>
	</g>
</g>
<g>
</g>
<g>
</g>
<g>
</g>
<g>
</g>
<g>
</g>
<g>
</g>
<g>
</g>
<g>
</g>
<g>
</g>
<g>
</g>
<g>
</g>
<g>
</g>
<g>
</g>
<g>
</g>
<g>
</g>
</svg>
