<?xml version="1.0" encoding="iso-8859-1"?>
<!-- Generator: Adobe Illustrator 19.0.0, SVG Export Plug-In . SVG Version: 6.00 Build 0)  -->
<svg version="1.1" id="Capa_1" xmlns="http://www.w3.org/2000/svg" xmlns:xlink="http://www.w3.org/1999/xlink" x="0px" y="0px"
	 viewBox="0 0 456 456" style="enable-background:new 0 0 456 456;" xml:space="preserve">
<g>
	<g>
		<path d="M446.5,6H94.3C88.7,6,84.2,10.5,84,16.1V261H9.5C4,261,0,265.5,0,271v126.5C0,426.4,23,450,51.9,450h341.6
			c34.7,0,62.5-28.4,62.5-63.1V16.1C456,10.6,452,6,446.5,6z M84,397.5c0,17.7-14.3,32-32,32s-32-14.3-32-32V281h64V397.5z
			 M436,386.9c0,23.7-18.8,43.1-42.5,43.1H93c7.2-9.3,11.1-20.7,11-32.5V26h332V386.9z"/>
	</g>
</g>
<g>
	<g>
		<path d="M362.1,347h-182c-5.5,0-10,4.5-10,10s4.5,10,10,10h182c5.5,0,10-4.5,10-10S367.6,347,362.1,347z"/>
	</g>
</g>
<g>
	<g>
		<path d="M360,271H184V135.1c0-5.5-4.5-10-10-10s-10,4.5-10,10v136.6c0,10.6,8.2,19.3,18.9,19.3H360c5.5,0,10-4.5,10-10
			S365.5,271,360,271z"/>
	</g>
</g>
<g>
	<g>
		<path d="M370.4,147c-13.5-4-27.7,3.6-31.7,17.1c-1.9,6.3-1.3,13.1,1.7,18.9L327,197.6c-8.7-6.5-20.6-6.7-29.6-0.5l-11.5-9.4
			c-1.3-14-13.7-24.3-27.7-23s-24.3,13.7-23,27.7c0.1,0.6,0.1,1.1,0.2,1.7l-14.4,18c-13.5-3.9-27.6,3.9-31.5,17.4
			c-3.9,13.5,3.9,27.6,17.4,31.5c2.4,0.9,4.7,1.2,7.1,1.2c14,0,25.4-11.4,25.5-25.4c0-4.1-1-8.2-2.9-11.9l10.5-13.2
			c10.2,6.4,23.4,4.8,31.8-3.9l7.8,6.4c-2.1,13.9,7.4,26.9,21.3,29c13.9,2.1,26.9-7.4,29-21.3c0.2-1.3,0.3-2.6,0.3-3.9
			c0-0.7,0-1.3-0.1-2l18.6-20.2c13.5,4,27.7-3.6,31.7-17.1S383.9,151,370.4,147z M214,242.3c-3,0-5.5-2.4-5.5-5.5
			c0.1-3,2.5-5.5,5.5-5.5s5.5,2.4,5.5,5.5C219.5,239.8,217.1,242.3,214,242.3z M260.6,195.8c-3,0-5.5-2.4-5.5-5.5
			c0-3.1,2.5-5.5,5.5-5.5s5.5,2.4,5.5,5.5C266.1,193.4,263.7,195.8,260.6,195.8z M311.8,223.7c-3,0-5.5-2.4-5.5-5.5
			c0-3,2.5-5.5,5.5-5.5s5.5,2.4,5.5,5.5C317.3,221.3,314.9,223.7,311.8,223.7z M363,177.2c-3,0-5.5-2.4-5.5-5.5
			c0-3.1,2.5-5.5,5.5-5.5s5.5,2.4,5.5,5.5C368.5,174.8,366.1,177.2,363,177.2z"/>
	</g>
</g>
<g>
</g>
<g>
</g>
<g>
</g>
<g>
</g>
<g>
</g>
<g>
</g>
<g>
</g>
<g>
</g>
<g>
</g>
<g>
</g>
<g>
</g>
<g>
</g>
<g>
</g>
<g>
</g>
<g>
</g>
</svg>
